<?xml version="1.0" encoding="UTF-8"?><svg id="a" xmlns="http://www.w3.org/2000/svg" xmlns:xlink="http://www.w3.org/1999/xlink" viewBox="0 0 1436.01 423.11"><defs><clipPath id="b"><rect width="1436.01" height="423.11" fill="none"/></clipPath></defs><g clip-path="url(#b)"><path d="M1337.61,413.85h98.4v-97.24h-98.4v97.24ZM1362.5,278.41h48.62l24.31-180.59V0h-97.24v97.82l24.31,180.59ZM1143.13,423.11c95.5,0,158.02-67.72,158.02-156.86s-62.51-156.86-158.02-156.86-158.59,67.72-158.59,156.86,63.67,156.86,158.59,156.86M1142.55,355.97c-41.09,0-62.51-35.89-62.51-89.72s21.42-90.29,62.51-90.29,63.09,36.47,63.09,90.29-21.99,89.72-63.09,89.72M856.62,413.85h95.5V0h-95.5v413.85ZM714.82,413.85h95.5V0h-95.5v413.85ZM518.61,361.18c-23.15,0-40.52-9.26-40.52-32.99s15.05-31.83,51.51-39.94c19.1-4.63,36.47-9.26,48.62-15.63v35.31c0,31.83-24.31,53.25-59.62,53.25M488.51,421.37c44.57,0,70.62-15.63,87.98-40.52h1.16c2.32,15.05,5.21,26.62,9.84,32.99h91.45v-4.05c-8.1-5.21-10.42-18.52-10.42-42.25v-149.33c0-37.04-12.15-65.98-37.62-84.51-21.42-16.21-51.51-24.31-96.08-24.31-89.72,0-131.97,46.88-134.28,101.87h86.82c2.89-24.89,17.94-38.2,48.04-38.2,28.36,0,40.52,12.73,40.52,31.83,0,20.26-19.68,26.05-75.25,32.99-61.35,8.1-113.45,27.78-113.45,93.19,0,58.46,42.25,90.29,101.29,90.29M0,413.85h102.45v-172.49h145.28v172.49h102.45V0h-102.45v156.86H102.45V0H0v413.85Z" fill="#231f20"/></g></svg>